<mxfile host="app.diagrams.net" modified="2022-09-27T07:38:39.951Z" agent="5.0 (Windows NT 10.0; Win64; x64) AppleWebKit/537.36 (KHTML, like Gecko) Chrome/105.0.0.0 Safari/537.36" etag="sdfrs_y-Jhigyuas2GnX" version="20.3.2" type="github">
  <diagram id="gyESVawTk5T6q6hwbsDT" name="第 1 页">
    <mxGraphModel dx="1422" dy="839" grid="1" gridSize="10" guides="1" tooltips="1" connect="1" arrows="1" fold="1" page="1" pageScale="1" pageWidth="827" pageHeight="1169" math="0" shadow="0">
      <root>
        <mxCell id="0" />
        <mxCell id="1" parent="0" />
        <mxCell id="TTHo4UyRNKmOSsGVPG7F-36" value="" style="group" vertex="1" connectable="0" parent="1">
          <mxGeometry x="90" y="460" width="620" height="350" as="geometry" />
        </mxCell>
        <mxCell id="TTHo4UyRNKmOSsGVPG7F-22" value="" style="rounded=0;whiteSpace=wrap;html=1;" vertex="1" parent="TTHo4UyRNKmOSsGVPG7F-36">
          <mxGeometry width="620" height="350" as="geometry" />
        </mxCell>
        <mxCell id="TTHo4UyRNKmOSsGVPG7F-23" value="打开目录" style="rounded=0;whiteSpace=wrap;html=1;" vertex="1" parent="TTHo4UyRNKmOSsGVPG7F-36">
          <mxGeometry x="530" y="30" width="80" height="20" as="geometry" />
        </mxCell>
        <mxCell id="TTHo4UyRNKmOSsGVPG7F-24" value="" style="rounded=0;whiteSpace=wrap;html=1;" vertex="1" parent="TTHo4UyRNKmOSsGVPG7F-36">
          <mxGeometry x="10" y="10" width="510" height="290" as="geometry" />
        </mxCell>
        <mxCell id="TTHo4UyRNKmOSsGVPG7F-25" value="进度条" style="rounded=0;whiteSpace=wrap;html=1;" vertex="1" parent="TTHo4UyRNKmOSsGVPG7F-36">
          <mxGeometry x="110" y="305.62" width="80" height="25.63" as="geometry" />
        </mxCell>
        <mxCell id="TTHo4UyRNKmOSsGVPG7F-26" value="结果记录" style="rounded=0;whiteSpace=wrap;html=1;" vertex="1" parent="TTHo4UyRNKmOSsGVPG7F-36">
          <mxGeometry x="530" y="60" width="80" height="60" as="geometry" />
        </mxCell>
        <mxCell id="TTHo4UyRNKmOSsGVPG7F-27" value="保存记录" style="rounded=0;whiteSpace=wrap;html=1;" vertex="1" parent="TTHo4UyRNKmOSsGVPG7F-36">
          <mxGeometry x="530" y="170" width="80" height="60" as="geometry" />
        </mxCell>
        <mxCell id="TTHo4UyRNKmOSsGVPG7F-28" value="暂停" style="rounded=0;whiteSpace=wrap;html=1;" vertex="1" parent="TTHo4UyRNKmOSsGVPG7F-36">
          <mxGeometry x="200" y="307.5" width="70" height="25" as="geometry" />
        </mxCell>
        <mxCell id="TTHo4UyRNKmOSsGVPG7F-29" value="前进" style="rounded=0;whiteSpace=wrap;html=1;" vertex="1" parent="TTHo4UyRNKmOSsGVPG7F-36">
          <mxGeometry x="275" y="307.5" width="70" height="25" as="geometry" />
        </mxCell>
        <mxCell id="TTHo4UyRNKmOSsGVPG7F-30" value="倒退" style="rounded=0;whiteSpace=wrap;html=1;" vertex="1" parent="TTHo4UyRNKmOSsGVPG7F-36">
          <mxGeometry x="353.5" y="307.19000000000005" width="70" height="22.5" as="geometry" />
        </mxCell>
        <mxCell id="TTHo4UyRNKmOSsGVPG7F-31" value="智能分析" style="rounded=0;whiteSpace=wrap;html=1;" vertex="1" parent="TTHo4UyRNKmOSsGVPG7F-36">
          <mxGeometry x="530" y="130" width="80" height="35" as="geometry" />
        </mxCell>
        <mxCell id="TTHo4UyRNKmOSsGVPG7F-32" value="1" style="rounded=0;whiteSpace=wrap;html=1;" vertex="1" parent="TTHo4UyRNKmOSsGVPG7F-36">
          <mxGeometry x="560" width="20" height="10" as="geometry" />
        </mxCell>
        <mxCell id="TTHo4UyRNKmOSsGVPG7F-33" value="2" style="rounded=0;whiteSpace=wrap;html=1;" vertex="1" parent="TTHo4UyRNKmOSsGVPG7F-36">
          <mxGeometry x="580" width="20" height="10" as="geometry" />
        </mxCell>
        <mxCell id="TTHo4UyRNKmOSsGVPG7F-34" value="3" style="rounded=0;whiteSpace=wrap;html=1;" vertex="1" parent="TTHo4UyRNKmOSsGVPG7F-36">
          <mxGeometry x="600" width="20" height="10" as="geometry" />
        </mxCell>
        <mxCell id="TTHo4UyRNKmOSsGVPG7F-35" value="文件命名" style="rounded=0;whiteSpace=wrap;html=1;" vertex="1" parent="TTHo4UyRNKmOSsGVPG7F-36">
          <mxGeometry x="430" y="305.62" width="80" height="24.38" as="geometry" />
        </mxCell>
        <mxCell id="TTHo4UyRNKmOSsGVPG7F-37" value="" style="group" vertex="1" connectable="0" parent="1">
          <mxGeometry x="50" y="170" width="720" height="250" as="geometry" />
        </mxCell>
        <mxCell id="TTHo4UyRNKmOSsGVPG7F-2" value="VLC Media Player" style="rounded=0;whiteSpace=wrap;html=1;" vertex="1" parent="TTHo4UyRNKmOSsGVPG7F-37">
          <mxGeometry x="240" y="190" width="120" height="60" as="geometry" />
        </mxCell>
        <mxCell id="TTHo4UyRNKmOSsGVPG7F-4" value="Extract frame" style="rounded=0;whiteSpace=wrap;html=1;" vertex="1" parent="TTHo4UyRNKmOSsGVPG7F-37">
          <mxGeometry x="410" y="190" width="120" height="60" as="geometry" />
        </mxCell>
        <mxCell id="TTHo4UyRNKmOSsGVPG7F-1" style="edgeStyle=orthogonalEdgeStyle;rounded=0;orthogonalLoop=1;jettySize=auto;html=1;exitX=1;exitY=0.5;exitDx=0;exitDy=0;entryX=0;entryY=0.5;entryDx=0;entryDy=0;" edge="1" parent="TTHo4UyRNKmOSsGVPG7F-37" source="TTHo4UyRNKmOSsGVPG7F-2" target="TTHo4UyRNKmOSsGVPG7F-4">
          <mxGeometry relative="1" as="geometry" />
        </mxCell>
        <mxCell id="TTHo4UyRNKmOSsGVPG7F-7" value="MFC" style="rounded=0;whiteSpace=wrap;html=1;" vertex="1" parent="TTHo4UyRNKmOSsGVPG7F-37">
          <mxGeometry width="120" height="60" as="geometry" />
        </mxCell>
        <mxCell id="TTHo4UyRNKmOSsGVPG7F-8" style="edgeStyle=orthogonalEdgeStyle;rounded=0;orthogonalLoop=1;jettySize=auto;html=1;exitX=1;exitY=0.5;exitDx=0;exitDy=0;" edge="1" parent="TTHo4UyRNKmOSsGVPG7F-37" source="TTHo4UyRNKmOSsGVPG7F-9" target="TTHo4UyRNKmOSsGVPG7F-2">
          <mxGeometry relative="1" as="geometry" />
        </mxCell>
        <mxCell id="TTHo4UyRNKmOSsGVPG7F-9" value="VLC-Warper" style="rounded=0;whiteSpace=wrap;html=1;" vertex="1" parent="TTHo4UyRNKmOSsGVPG7F-37">
          <mxGeometry x="160" width="120" height="60" as="geometry" />
        </mxCell>
        <mxCell id="TTHo4UyRNKmOSsGVPG7F-5" style="edgeStyle=orthogonalEdgeStyle;rounded=0;orthogonalLoop=1;jettySize=auto;html=1;exitX=1;exitY=0.5;exitDx=0;exitDy=0;entryX=0;entryY=0.5;entryDx=0;entryDy=0;" edge="1" parent="TTHo4UyRNKmOSsGVPG7F-37" source="TTHo4UyRNKmOSsGVPG7F-7" target="TTHo4UyRNKmOSsGVPG7F-9">
          <mxGeometry relative="1" as="geometry" />
        </mxCell>
        <mxCell id="TTHo4UyRNKmOSsGVPG7F-10" style="edgeStyle=orthogonalEdgeStyle;rounded=0;orthogonalLoop=1;jettySize=auto;html=1;entryX=0.503;entryY=1.015;entryDx=0;entryDy=0;entryPerimeter=0;" edge="1" parent="TTHo4UyRNKmOSsGVPG7F-37" source="TTHo4UyRNKmOSsGVPG7F-11" target="TTHo4UyRNKmOSsGVPG7F-9">
          <mxGeometry relative="1" as="geometry">
            <mxPoint x="220" y="70" as="targetPoint" />
            <Array as="points">
              <mxPoint x="220" y="110" />
              <mxPoint x="220" y="80" />
              <mxPoint x="220" y="80" />
            </Array>
          </mxGeometry>
        </mxCell>
        <mxCell id="TTHo4UyRNKmOSsGVPG7F-11" value="VLC_Diagram" style="rounded=0;whiteSpace=wrap;html=1;" vertex="1" parent="TTHo4UyRNKmOSsGVPG7F-37">
          <mxGeometry x="80" y="80" width="120" height="60" as="geometry" />
        </mxCell>
        <mxCell id="TTHo4UyRNKmOSsGVPG7F-6" style="edgeStyle=orthogonalEdgeStyle;rounded=0;orthogonalLoop=1;jettySize=auto;html=1;exitX=0.5;exitY=1;exitDx=0;exitDy=0;entryX=0;entryY=0.5;entryDx=0;entryDy=0;" edge="1" parent="TTHo4UyRNKmOSsGVPG7F-37" source="TTHo4UyRNKmOSsGVPG7F-7" target="TTHo4UyRNKmOSsGVPG7F-11">
          <mxGeometry relative="1" as="geometry" />
        </mxCell>
        <mxCell id="TTHo4UyRNKmOSsGVPG7F-12" value="" style="group" vertex="1" connectable="0" parent="TTHo4UyRNKmOSsGVPG7F-37">
          <mxGeometry x="370" y="50" width="290" height="60" as="geometry" />
        </mxCell>
        <mxCell id="TTHo4UyRNKmOSsGVPG7F-13" style="edgeStyle=orthogonalEdgeStyle;rounded=0;orthogonalLoop=1;jettySize=auto;html=1;exitX=1;exitY=0.5;exitDx=0;exitDy=0;entryX=0;entryY=0.5;entryDx=0;entryDy=0;" edge="1" parent="TTHo4UyRNKmOSsGVPG7F-12" source="TTHo4UyRNKmOSsGVPG7F-14">
          <mxGeometry relative="1" as="geometry">
            <mxPoint x="170" y="30" as="targetPoint" />
          </mxGeometry>
        </mxCell>
        <mxCell id="TTHo4UyRNKmOSsGVPG7F-14" value="TensorRT" style="rounded=0;whiteSpace=wrap;html=1;" vertex="1" parent="TTHo4UyRNKmOSsGVPG7F-12">
          <mxGeometry width="120" height="60" as="geometry" />
        </mxCell>
        <mxCell id="TTHo4UyRNKmOSsGVPG7F-15" value="Detect object" style="rounded=0;whiteSpace=wrap;html=1;" vertex="1" parent="TTHo4UyRNKmOSsGVPG7F-12">
          <mxGeometry x="170" width="120" height="60" as="geometry" />
        </mxCell>
        <mxCell id="TTHo4UyRNKmOSsGVPG7F-16" value="" style="endArrow=classic;html=1;rounded=0;" edge="1" parent="TTHo4UyRNKmOSsGVPG7F-37" target="TTHo4UyRNKmOSsGVPG7F-4">
          <mxGeometry width="50" height="50" relative="1" as="geometry">
            <mxPoint x="470" y="120" as="sourcePoint" />
            <mxPoint x="520" y="280" as="targetPoint" />
          </mxGeometry>
        </mxCell>
        <mxCell id="TTHo4UyRNKmOSsGVPG7F-17" value="Intelligent analysis" style="rounded=0;whiteSpace=wrap;html=1;" vertex="1" parent="TTHo4UyRNKmOSsGVPG7F-37">
          <mxGeometry x="590" y="190" width="120" height="60" as="geometry" />
        </mxCell>
        <mxCell id="TTHo4UyRNKmOSsGVPG7F-3" style="edgeStyle=orthogonalEdgeStyle;rounded=0;orthogonalLoop=1;jettySize=auto;html=1;exitX=1;exitY=0.5;exitDx=0;exitDy=0;entryX=0;entryY=0.5;entryDx=0;entryDy=0;" edge="1" parent="TTHo4UyRNKmOSsGVPG7F-37" source="TTHo4UyRNKmOSsGVPG7F-4" target="TTHo4UyRNKmOSsGVPG7F-17">
          <mxGeometry relative="1" as="geometry" />
        </mxCell>
        <mxCell id="TTHo4UyRNKmOSsGVPG7F-18" value="" style="endArrow=classic;html=1;rounded=0;" edge="1" parent="TTHo4UyRNKmOSsGVPG7F-37">
          <mxGeometry width="50" height="50" relative="1" as="geometry">
            <mxPoint x="320" y="80" as="sourcePoint" />
            <mxPoint x="370" y="80" as="targetPoint" />
          </mxGeometry>
        </mxCell>
        <mxCell id="TTHo4UyRNKmOSsGVPG7F-19" value="image" style="text;html=1;strokeColor=none;fillColor=none;align=center;verticalAlign=middle;whiteSpace=wrap;rounded=0;" vertex="1" parent="TTHo4UyRNKmOSsGVPG7F-37">
          <mxGeometry x="320" y="60" width="40" height="20" as="geometry" />
        </mxCell>
        <mxCell id="TTHo4UyRNKmOSsGVPG7F-20" value="object-info" style="text;html=1;strokeColor=none;fillColor=none;align=center;verticalAlign=middle;whiteSpace=wrap;rounded=0;" vertex="1" parent="TTHo4UyRNKmOSsGVPG7F-37">
          <mxGeometry x="660" y="60" width="60" height="20" as="geometry" />
        </mxCell>
        <mxCell id="TTHo4UyRNKmOSsGVPG7F-21" style="edgeStyle=orthogonalEdgeStyle;rounded=0;orthogonalLoop=1;jettySize=auto;html=1;exitX=1;exitY=0.5;exitDx=0;exitDy=0;" edge="1" parent="TTHo4UyRNKmOSsGVPG7F-37" source="TTHo4UyRNKmOSsGVPG7F-15">
          <mxGeometry relative="1" as="geometry">
            <mxPoint x="720" y="79.85714285714289" as="targetPoint" />
          </mxGeometry>
        </mxCell>
      </root>
    </mxGraphModel>
  </diagram>
</mxfile>
